<svg width="215" height="215" viewBox="0 0 215 215" fill="none" xmlns="http://www.w3.org/2000/svg">
<g clip-path="url(#clip0_5_18)">
<path d="M107.5 215C166.871 215 215 166.871 215 107.5C215 48.1294 166.871 0 107.5 0C48.1294 0 0 48.1294 0 107.5C0 166.871 48.1294 215 107.5 215Z" fill="#FF500B"/>
<path d="M86 55.8234L60.2 60.9834V68.8094H43V163.409H172V68.8094H154.8V60.9834L129 55.8234L107.5 60.1234L86 55.8234ZM86 64.5954L103.2 68.0182V136.663L86 133.223L68.8 136.663V68.0354L86 64.5954ZM129 64.5954L146.2 68.0182V136.663L129 133.223L111.8 136.663V68.0354L129 64.5954ZM51.6 77.4094H60.2V147.155L86 141.995L103.2 145.435V154.809H51.6V77.4094ZM154.8 77.4094H163.4V154.809H111.8V145.435L129 141.995L154.8 147.155V77.4094Z" fill="white"/>
</g>
<defs>
<clipPath id="clip0_5_18">
<rect width="215" height="215" fill="white"/>
</clipPath>
</defs>
</svg>
