<svg width="512" height="512" viewBox="0 0 512 512" fill="none" xmlns="http://www.w3.org/2000/svg">
<g clip-path="url(#clip0_1_9)">
<path d="M256 512C397.385 512 512 397.385 512 256C512 114.615 397.385 0 256 0C114.615 0 0 114.615 0 256C0 397.385 114.615 512 256 512Z" fill="#FF500B"/>
<path d="M204.8 132.938L143.36 145.226V163.862H102.4V389.142H409.6V163.862H368.64V145.226L307.2 132.938L256 143.178L204.8 132.938ZM204.8 153.827L245.76 161.978V325.45L204.8 317.257L163.84 325.45V162.019L204.8 153.827ZM307.2 153.827L348.16 161.978V325.45L307.2 317.257L266.24 325.45V162.019L307.2 153.827ZM122.88 184.342H143.36V350.435L204.8 338.147L245.76 346.339V368.662H122.88V184.342ZM368.64 184.342H389.12V368.662H266.24V346.339L307.2 338.147L368.64 350.435V184.342Z" fill="white"/>
</g>
<defs>
<clipPath id="clip0_1_9">
<rect width="512" height="512" fill="white"/>
</clipPath>
</defs>
</svg>
